/* XPM */
static char * bitcoin16_xpm[] = {
"16 16 106 2",
"  	c None",
". 	c #FBFBFB",
"+ 	c #FDFDFD",
"@ 	c #FEFEFE",
"# 	c #F9F9F9",
"$ 	c #FAFAFA",
"% 	c #FFFFFF",
"& 	c #F5F5F5",
"* 	c #F3F3F3",
"= 	c #ECEBF0",
"- 	c #9F94B4",
"; 	c #9483AD",
"> 	c #9985B2",
", 	c #9C85B5",
"' 	c #9E85B9",
") 	c #9F83BB",
"! 	c #A282BE",
"~ 	c #A785C4",
"{ 	c #BDA1D4",
"] 	c #EEE6F4",
"^ 	c #FEFFFE",
"/ 	c #FEFEFD",
"( 	c #D9D6E1",
"_ 	c #4D3A75",
": 	c #371866",
"< 	c #27015C",
"[ 	c #2A0061",
"} 	c #35036C",
"| 	c #4A147E",
"1 	c #531888",
"2 	c #490584",
"3 	c #4C0189",
"4 	c #8246AF",
"5 	c #F0E9F6",
"6 	c #F7F8F7",
"7 	c #D6D1DF",
"8 	c #5D4383",
"9 	c #29025E",
"0 	c #62408B",
"a 	c #B6A3CA",
"b 	c #E0D7E9",
"c 	c #E7DEEE",
"d 	c #B496CC",
"e 	c #550C8F",
"f 	c #560793",
"g 	c #D1BAE2",
"h 	c #FEFFFD",
"i 	c #F6F5F8",
"j 	c #6F5F8F",
"k 	c #210055",
"l 	c #785F99",
"m 	c #EEEBF3",
"n 	c #E4D8ED",
"o 	c #5F1996",
"p 	c #5D1197",
"q 	c #DDCCEA",
"r 	c #C8C4D4",
"s 	c #260F56",
"t 	c #331362",
"u 	c #D6CFE0",
"v 	c #F3EFF7",
"w 	c #946AB7",
"x 	c #4C0089",
"y 	c #9563BB",
"z 	c #FBF8FC",
"A 	c #BFBACD",
"B 	c #210A52",
"C 	c #2A095B",
"D 	c #A08EB7",
"E 	c #E4DEEB",
"F 	c #E1D9E9",
"G 	c #BDA9D0",
"H 	c #75469F",
"I 	c #480283",
"J 	c #753AA4",
"K 	c #DCCCE8",
"L 	c #FEFEFF",
"M 	c #FBFBFA",
"N 	c #EFEEF3",
"O 	c #69588A",
"P 	c #260558",
"Q 	c #2B055F",
"R 	c #431974",
"S 	c #461579",
"T 	c #3C0475",
"U 	c #3D0078",
"V 	c #450081",
"W 	c #591392",
"X 	c #712CA4",
"Y 	c #DBC9E9",
"Z 	c #F6F7F5",
"` 	c #F0EEF3",
" .	c #BAAFCA",
"..	c #9B88B4",
"+.	c #9A83B4",
"@.	c #9D84B8",
"#.	c #A185BC",
"$.	c #A586C1",
"%.	c #A987C4",
"&.	c #AB86C7",
"*.	c #B490CF",
"=.	c #EDE4F3",
"-.	c #EDEDED",
";.	c #ECECEC",
">.	c #F6F6F6",
",.	c #FCFCFC",
"                                ",
"          . + @ @ + #           ",
"      $ @ % % % % % % @ &       ",
"    $ % % % % % % % % % % *     ",
"    = - ; > , ' ) ! ~ { ] ^     ",
"  / ( _ : < [ } | 1 2 3 4 5 6   ",
"  / % 7 8 9 0 a b c d e f g h   ",
"  % i j k l m % % % n o p q %   ",
"  % r s t u % % % v w x y z @   ",
"  % A B C D E F G H I J K L .   ",
"  M N O P Q R S T U V W X Y Z   ",
"    % `  ...+.@.#.$.%.&.*.=.    ",
"    & % % % % % % % % % % -.    ",
"      * @ % % % % % % @ ;.      ",
"          >.,.+ + . *           ",
"                                "};
