/* XPM */
static char * bitcoin32_xpm[] = {
"32 32 269 2",
"  	c None",
". 	c #F0F0F0",
"+ 	c #F2F2F2",
"@ 	c #EFEFEF",
"# 	c #F1F1F1",
"$ 	c #FAFAFA",
"% 	c #FDFDFD",
"& 	c #FFFFFF",
"* 	c #F8F8F8",
"= 	c #ECECEC",
"- 	c #FCFCFC",
"; 	c #FBFBFB",
"> 	c #EAEAEA",
", 	c #F9F9F9",
"' 	c #F5F5F5",
") 	c #F4F4F4",
"! 	c #F4F3F7",
"~ 	c #EBE8EF",
"{ 	c #E9E6EE",
"] 	c #EAE6EF",
"^ 	c #EBE6F0",
"/ 	c #EBE6F1",
"( 	c #EBE5F1",
"_ 	c #ECE5F1",
": 	c #ECE5F2",
"< 	c #EDE6F3",
"[ 	c #EEE8F4",
"} 	c #F6F2F9",
"| 	c #FEFDFE",
"1 	c #E4E4E4",
"2 	c #D8D5E0",
"3 	c #5A4C7E",
"4 	c #412A6C",
"5 	c #42276E",
"6 	c #452671",
"7 	c #482674",
"8 	c #4A2677",
"9 	c #4D267A",
"0 	c #4F267E",
"a 	c #522681",
"b 	c #542684",
"c 	c #562586",
"d 	c #592589",
"e 	c #5B258D",
"f 	c #5E2590",
"g 	c #612693",
"h 	c #652898",
"i 	c #7339A2",
"j 	c #9A6EBD",
"k 	c #DAC9E7",
"l 	c #A09AB5",
"m 	c #150148",
"n 	c #19004D",
"o 	c #1D0051",
"p 	c #210055",
"q 	c #25005A",
"r 	c #28005E",
"s 	c #2C0062",
"t 	c #2F0065",
"u 	c #320069",
"v 	c #35006D",
"w 	c #370070",
"x 	c #3A0073",
"y 	c #3C0077",
"z 	c #40007B",
"A 	c #44007F",
"B 	c #470083",
"C 	c #490086",
"D 	c #4C008A",
"E 	c #62199A",
"F 	c #BFA0D6",
"G 	c #FEFEFF",
"H 	c #E2E2E2",
"I 	c #DBD8E2",
"J 	c #5F5182",
"K 	c #452F6F",
"L 	c #4A3074",
"M 	c #3D1D6B",
"N 	c #28005C",
"O 	c #2A005F",
"P 	c #2E0063",
"Q 	c #300067",
"R 	c #310069",
"S 	c #410A77",
"T 	c #501A83",
"U 	c #57208A",
"V 	c #531688",
"W 	c #480482",
"X 	c #4B0088",
"Y 	c #4F008C",
"Z 	c #4F008E",
"` 	c #661D9E",
" .	c #DFCFEB",
"..	c #F6F5F8",
"+.	c #F0EEF3",
"@.	c #C6BED3",
"#.	c #55387D",
"$.	c #27005B",
"%.	c #2B0061",
"&.	c #35076A",
"*.	c #61398C",
"=.	c #9F85B9",
"-.	c #CCBEDB",
";.	c #E2DAEB",
">.	c #E8E0EF",
",.	c #E0D4E9",
"'.	c #B89DCF",
").	c #682D9A",
"!.	c #4A0087",
"~.	c #51008F",
"{.	c #530092",
"].	c #B38DCF",
"^.	c #C7C0D4",
"/.	c #462C71",
"(.	c #220057",
"_.	c #27005C",
":.	c #29005E",
"<.	c #522D7E",
"[.	c #B2A0C6",
"}.	c #F1EEF5",
"|.	c #D2BFE1",
"1.	c #581291",
"2.	c #4E008B",
"3.	c #52008F",
"4.	c #520091",
"5.	c #A679C7",
"6.	c #D3D3D3",
"7.	c #D2CEDC",
"8.	c #40296B",
"9.	c #1E0052",
"0.	c #240058",
"a.	c #694C8E",
"b.	c #E0DAE8",
"c.	c #EFE8F4",
"d.	c #68299B",
"e.	c #4D008A",
"f.	c #540093",
"g.	c #B895D3",
"h.	c #DFDFDF",
"i.	c #F4F3F6",
"j.	c #615384",
"k.	c #1B004E",
"l.	c #210154",
"m.	c #220056",
"n.	c #5A3C82",
"o.	c #E6E1EC",
"p.	c #D4C2E2",
"q.	c #571090",
"r.	c #62159B",
"s.	c #DECDEA",
"t.	c #E3E3E3",
"u.	c #BEB9CC",
"v.	c #231054",
"w.	c #1E0350",
"x.	c #210054",
"y.	c #2A075D",
"z.	c #B9ACCA",
"A.	c #F2EEF6",
"B.	c #8251AB",
"C.	c #9562BB",
"D.	c #FCFAFD",
"E.	c #EEEEEE",
"F.	c #8981A2",
"G.	c #18044B",
"H.	c #1E0351",
"I.	c #200053",
"J.	c #391968",
"K.	c #DED8E6",
"L.	c #EBE4F1",
"M.	c #8C61B1",
"N.	c #4A0385",
"O.	c #6E2BA1",
"P.	c #E2D5ED",
"Q.	c #DDDDDD",
"R.	c #7C7398",
"S.	c #17034A",
"T.	c #2C095E",
"U.	c #B8ACC9",
"V.	c #F6F3F8",
"W.	c #C1ADD4",
"X.	c #6C389A",
"Y.	c #450180",
"Z.	c #480084",
"`.	c #68269C",
" +	c #D3BEE2",
".+	c #CECECE",
"++	c #9D96B2",
"@+	c #1A064C",
"#+	c #230057",
"$+	c #442372",
"%+	c #A694BC",
"&+	c #DBD3E4",
"*+	c #E7E2EE",
"=+	c #E3DCEB",
"-+	c #D1C5DE",
";+	c #A991C2",
">+	c #71449A",
",+	c #460A7E",
"'+	c #460080",
")+	c #642398",
"!+	c #C6ADD9",
"~+	c #EEE6F4",
"{+	c #F3EDF7",
"]+	c #E1DEE7",
"^+	c #43326C",
"/+	c #1A004E",
"(+	c #26005B",
"_+	c #2C0360",
":+	c #3F1570",
"<+	c #4B217A",
"[+	c #4A1C7B",
"}+	c #410D76",
"|+	c #390171",
"1+	c #3A0074",
"2+	c #3F0079",
"3+	c #43007D",
"4+	c #460081",
"5+	c #56108F",
"6+	c #69269D",
"7+	c #69239E",
"8+	c #7836AA",
"9+	c #D4BFE4",
"0+	c #C5BFD2",
"a+	c #493372",
"b+	c #210254",
"c+	c #2D0064",
"d+	c #300068",
"e+	c #34006C",
"f+	c #380070",
"g+	c #3B0074",
"h+	c #3E0078",
"i+	c #41007C",
"j+	c #4B0089",
"k+	c #4E008D",
"l+	c #4E008F",
"m+	c #A377C5",
"n+	c #DBDBDB",
"o+	c #E5E1EB",
"p+	c #9F91B5",
"q+	c #684F8C",
"r+	c #4F2F7A",
"s+	c #492677",
"t+	c #4C257A",
"u+	c #572787",
"v+	c #5B278B",
"w+	c #5D288E",
"x+	c #602891",
"y+	c #632995",
"z+	c #662998",
"A+	c #692A9B",
"B+	c #6C2A9F",
"C+	c #6E2AA2",
"D+	c #7C3BAC",
"E+	c #D5C0E5",
"F+	c #FAF9FB",
"G+	c #EFECF3",
"H+	c #EAE5EF",
"I+	c #ECE7F1",
"J+	c #EDE7F2",
"K+	c #EDE7F3",
"L+	c #EEE8F3",
"M+	c #EFE9F4",
"N+	c #EFE9F5",
"O+	c #F0E9F5",
"P+	c #F5F1F9",
"Q+	c #FFFEFF",
"R+	c #DADADA",
"S+	c #F6F6F6",
"T+	c #F3F3F3",
"                                                                ",
"                            . + + @                             ",
"                    # $ % & & & & & & % * =                     ",
"                + - & & & & & & & & & & & & ; >                 ",
"              , & & & & & & & & & & & & & & & & '               ",
"            - & & & & & & & & & & & & & & & & & & ,             ",
"          ; & & & & & & & & & & & & & & & & & & & & ,           ",
"        , & & & & & & & & & & & & & & & & & & & & & & )         ",
"      + & & ! ~ { ] ] ] ^ ^ / / ( ( _ : < [ } | & & & & 1       ",
"      - & 2 3 4 5 6 7 8 9 0 a b c d e f g h i j k | & & ,       ",
"    + & & l m n o p q r s t u v w x y z A B C D E F G & & H     ",
"    $ & & I J K L M N O P Q R v S T U V W B X Y Z `  .& & )     ",
"    % & & & ..+.@.#.$.O %.&.*.=.-.;.>.,.'.).!.Y ~.{.].& & -     ",
"    & & & & & ^./.(._.:.<.[.}.& & & & & & |.1.2.3.4.5.& & & 6.  ",
"  . & & & & 7.8.9.0.$.a.b.& & & & & & & & c.d.e.~.f.g.& & & h.  ",
"  + & & & i.j.k.l.m.n.o.& & & & & & & & & p.q.2.~.r.s.& & & t.  ",
"  # & & & u.v.w.x.y.z.& & & & & & & & & A.B.!.Y Z C.D.& & & t.  ",
"  E.& & & F.G.H.I.J.K.& & & & & & & & L.M.N.X D O.P.& & & & Q.  ",
"    & & & R.S.H.x.T.U.& & & & & & V.W.X.Y.Z.!.`. +& & & & & .+  ",
"    % & & ++@+H.l.#+$+%+&+*+=+-+;+>+,+z '+B )+!+~+{+G & & -     ",
"    * & & ]+^+/+l.0.(+_+:+<+[+}+|+1+2+3+4+Z.5+6+7+8+9+& & +     ",
"    = & & & 0+a+b+p q r %.c+d+e+f+g+h+i+A B C j+k+l+m+& & n+    ",
"      ; & & & o+p+q+r+s+t+0 a b u+v+w+x+y+z+A+B+C+D+E+& *       ",
"      > & & & & & F+G+] H+^ / / I+J+K+L+[ M+N+O+O+P+Q+& R+      ",
"        ' & & & & & & & & & & & & & & & & & & & & & & @         ",
"          , & & & & & & & & & & & & & & & & & & & & S+          ",
"            , & & & & & & & & & & & & & & & & & & S+            ",
"              ) & & & & & & & & & & & & & & & & @               ",
"                t.$ & & & & & & & & & & & & * R+                ",
"                    H ) - & & & & & & - T+n+                    ",
"                          6.h.t.t.Q..+                          ",
"                                                                "};
